{
  "extensionsUsed": [
    "KHR_lights_punctual"
  ],
  "accessors": [
    {
      "bufferView": 0,
      "componentType": 5126,
      "count": 1923,
      "type": "VEC3",
      "max": [
        0.0042877849191427231,
        0.0022016470320522785,
        0.0054510133340954781
      ],
      "min": [
        -0.0042877849191427231,
        -0.0022166578564792871,
        -3.1830370517127449E-06
      ]
    },
    {
      "bufferView": 1,
      "componentType": 5126,
      "count": 1923,
      "type": "VEC3",
      "max": [
        1.0,
        1.0,
        1.0
      ],
      "min": [
        -1.0,
        -1.0,
        -1.0
      ]
    },
    {
      "bufferView": 2,
      "componentType": 5126,
      "count": 1923,
      "type": "VEC4",
      "max": [
        1.0,
        1.0,
        1.0,
        1.0
      ],
      "min": [
        -1.0,
        -1.0,
        -1.0,
        -1.0
      ]
    },
    {
      "bufferView": 3,
      "componentType": 5126,
      "count": 1923,
      "type": "VEC2",
      "max": [
        0.99436819553375244,
        0.99229001998901367
      ],
      "min": [
        0.0068954043090343475,
        0.025752723217010498
      ]
    },
    {
      "bufferView": 4,
      "componentType": 5123,
      "count": 6192,
      "type": "SCALAR",
      "max": [
        1922.0
      ],
      "min": [
        0.0
      ]
    },
    {
      "bufferView": 5,
      "componentType": 5126,
      "count": 495,
      "type": "VEC3",
      "max": [
        0.001274776877835393,
        0.0022159761283546686,
        0.0010680302511900663
      ],
      "min": [
        -0.0012747769942507148,
        -0.0022159761283546686,
        -0.0010680306004360318
      ]
    },
    {
      "bufferView": 6,
      "componentType": 5126,
      "count": 495,
      "type": "VEC3",
      "max": [
        1.0,
        1.0,
        1.0
      ],
      "min": [
        -1.0,
        -1.0,
        -1.0
      ]
    },
    {
      "bufferView": 7,
      "componentType": 5126,
      "count": 495,
      "type": "VEC4",
      "max": [
        1.0,
        1.0,
        1.0,
        1.0
      ],
      "min": [
        -1.0,
        -0.99995982646942139,
        -1.0,
        1.0
      ]
    },
    {
      "bufferView": 8,
      "componentType": 5126,
      "count": 495,
      "type": "VEC2",
      "max": [
        0.98325049877166748,
        0.99227803945541382
      ],
      "min": [
        0.0085930638015270233,
        0.030846118927001953
      ]
    },
    {
      "bufferView": 9,
      "componentType": 5123,
      "count": 1560,
      "type": "SCALAR",
      "max": [
        494.0
      ],
      "min": [
        0.0
      ]
    },
    {
      "bufferView": 10,
      "componentType": 5126,
      "count": 495,
      "type": "VEC3",
      "max": [
        0.0012747769942507148,
        0.0022159761283546686,
        0.0010680302511900663
      ],
      "min": [
        -0.0012747769942507148,
        -0.0022159761283546686,
        -0.0010680306004360318
      ]
    },
    {
      "bufferView": 11,
      "componentType": 5126,
      "count": 495,
      "type": "VEC3",
      "max": [
        1.0,
        1.0,
        1.0
      ],
      "min": [
        -1.0,
        -1.0,
        -1.0
      ]
    },
    {
      "bufferView": 12,
      "componentType": 5126,
      "count": 495,
      "type": "VEC4",
      "max": [
        1.0,
        1.0,
        1.0,
        1.0
      ],
      "min": [
        -1.0,
        -0.99995982646942139,
        -1.0,
        1.0
      ]
    },
    {
      "bufferView": 13,
      "componentType": 5126,
      "count": 495,
      "type": "VEC2",
      "max": [
        0.98465663194656372,
        0.99170327186584473
      ],
      "min": [
        0.0070669166743755341,
        0.03083491325378418
      ]
    },
    {
      "bufferView": 14,
      "componentType": 5123,
      "count": 1560,
      "type": "SCALAR",
      "max": [
        494.0
      ],
      "min": [
        0.0
      ]
    },
    {
      "bufferView": 15,
      "componentType": 5126,
      "count": 495,
      "type": "VEC3",
      "max": [
        0.0012747769942507148,
        0.0022159761283546686,
        0.0010680302511900663
      ],
      "min": [
        -0.001274776877835393,
        -0.0022159761283546686,
        -0.0010680306004360318
      ]
    },
    {
      "bufferView": 16,
      "componentType": 5126,
      "count": 495,
      "type": "VEC3",
      "max": [
        1.0,
        1.0,
        1.0
      ],
      "min": [
        -1.0,
        -1.0,
        -1.0
      ]
    },
    {
      "bufferView": 17,
      "componentType": 5126,
      "count": 495,
      "type": "VEC4",
      "max": [
        1.0,
        1.0,
        1.0,
        1.0
      ],
      "min": [
        -1.0,
        -0.99995982646942139,
        -1.0,
        1.0
      ]
    },
    {
      "bufferView": 18,
      "componentType": 5126,
      "count": 495,
      "type": "VEC2",
      "max": [
        0.98466324806213379,
        0.99228167533874512
      ],
      "min": [
        0.051447611302137375,
        0.030836582183837891
      ]
    },
    {
      "bufferView": 19,
      "componentType": 5123,
      "count": 1560,
      "type": "SCALAR",
      "max": [
        494.0
      ],
      "min": [
        0.0
      ]
    },
    {
      "bufferView": 20,
      "componentType": 5126,
      "count": 495,
      "type": "VEC3",
      "max": [
        0.0012747767614200711,
        0.0022159761283546686,
        0.0010680303676053882
      ],
      "min": [
        -0.0012747769942507148,
        -0.0022159761283546686,
        -0.0010680303676053882
      ]
    },
    {
      "bufferView": 21,
      "componentType": 5126,
      "count": 495,
      "type": "VEC3",
      "max": [
        1.0,
        1.0,
        1.0
      ],
      "min": [
        -1.0,
        -1.0,
        -1.0
      ]
    },
    {
      "bufferView": 22,
      "componentType": 5126,
      "count": 495,
      "type": "VEC4",
      "max": [
        1.0,
        0.9999992847442627,
        1.0,
        1.0
      ],
      "min": [
        -1.0,
        -1.0,
        -1.0,
        1.0
      ]
    },
    {
      "bufferView": 23,
      "componentType": 5126,
      "count": 495,
      "type": "VEC2",
      "max": [
        0.985047459602356,
        0.99228858947753906
      ],
      "min": [
        0.0070665590465068817,
        0.030849158763885498
      ]
    },
    {
      "bufferView": 24,
      "componentType": 5123,
      "count": 1560,
      "type": "SCALAR",
      "max": [
        494.0
      ],
      "min": [
        0.0
      ]
    },
    {
      "bufferView": 25,
      "componentType": 5126,
      "count": 495,
      "type": "VEC3",
      "max": [
        0.0012747769942507148,
        0.0022159761283546686,
        0.0010680303676053882
      ],
      "min": [
        -0.0012747769942507148,
        -0.0022159761283546686,
        -0.0010680303676053882
      ]
    },
    {
      "bufferView": 26,
      "componentType": 5126,
      "count": 495,
      "type": "VEC3",
      "max": [
        1.0,
        1.0,
        1.0
      ],
      "min": [
        -1.0,
        -1.0,
        -1.0
      ]
    },
    {
      "bufferView": 27,
      "componentType": 5126,
      "count": 495,
      "type": "VEC4",
      "max": [
        1.0,
        0.99999916553497314,
        1.0,
        1.0
      ],
      "min": [
        -1.0,
        -1.0,
        -1.0,
        1.0
      ]
    },
    {
      "bufferView": 28,
      "componentType": 5126,
      "count": 495,
      "type": "VEC2",
      "max": [
        0.99209141731262207,
        0.88658487796783447
      ],
      "min": [
        0.034222584217786789,
        0.01036524772644043
      ]
    },
    {
      "bufferView": 29,
      "componentType": 5123,
      "count": 1560,
      "type": "SCALAR",
      "max": [
        494.0
      ],
      "min": [
        0.0
      ]
    },
    {
      "bufferView": 30,
      "componentType": 5126,
      "count": 495,
      "type": "VEC3",
      "max": [
        0.0012747769942507148,
        0.0022159761283546686,
        0.0010680303676053882
      ],
      "min": [
        -0.0012747767614200711,
        -0.0022159761283546686,
        -0.0010680303676053882
      ]
    },
    {
      "bufferView": 31,
      "componentType": 5126,
      "count": 495,
      "type": "VEC3",
      "max": [
        1.0,
        1.0,
        1.0
      ],
      "min": [
        -1.0,
        -1.0,
        -1.0
      ]
    },
    {
      "bufferView": 32,
      "componentType": 5126,
      "count": 495,
      "type": "VEC4",
      "max": [
        1.0,
        0.9999992847442627,
        1.0,
        1.0
      ],
      "min": [
        -1.0,
        -1.0,
        -1.0,
        1.0
      ]
    },
    {
      "bufferView": 33,
      "componentType": 5126,
      "count": 495,
      "type": "VEC2",
      "max": [
        0.9920649528503418,
        0.98988050222396851
      ],
      "min": [
        0.0070514194667339325,
        0.030838727951049805
      ]
    },
    {
      "bufferView": 34,
      "componentType": 5123,
      "count": 1560,
      "type": "SCALAR",
      "max": [
        494.0
      ],
      "min": [
        0.0
      ]
    }
  ],
  "asset": {
    "version": "2.0"
  },
  "buffers": [
    {
      "uri": "Vintage_Cupboard.bin",
      "byteLength": 265968
    }
  ],
  "bufferViews": [
    {
      "buffer": 0,
      "byteLength": 23076
    },
    {
      "buffer": 0,
      "byteOffset": 23076,
      "byteLength": 23076
    },
    {
      "buffer": 0,
      "byteOffset": 46152,
      "byteLength": 30768
    },
    {
      "buffer": 0,
      "byteOffset": 76920,
      "byteLength": 15384
    },
    {
      "buffer": 0,
      "byteOffset": 92304,
      "byteLength": 12384
    },
    {
      "buffer": 0,
      "byteOffset": 104688,
      "byteLength": 5940
    },
    {
      "buffer": 0,
      "byteOffset": 110628,
      "byteLength": 5940
    },
    {
      "buffer": 0,
      "byteOffset": 116568,
      "byteLength": 7920
    },
    {
      "buffer": 0,
      "byteOffset": 124488,
      "byteLength": 3960
    },
    {
      "buffer": 0,
      "byteOffset": 128448,
      "byteLength": 3120
    },
    {
      "buffer": 0,
      "byteOffset": 131568,
      "byteLength": 5940
    },
    {
      "buffer": 0,
      "byteOffset": 137508,
      "byteLength": 5940
    },
    {
      "buffer": 0,
      "byteOffset": 143448,
      "byteLength": 7920
    },
    {
      "buffer": 0,
      "byteOffset": 151368,
      "byteLength": 3960
    },
    {
      "buffer": 0,
      "byteOffset": 155328,
      "byteLength": 3120
    },
    {
      "buffer": 0,
      "byteOffset": 158448,
      "byteLength": 5940
    },
    {
      "buffer": 0,
      "byteOffset": 164388,
      "byteLength": 5940
    },
    {
      "buffer": 0,
      "byteOffset": 170328,
      "byteLength": 7920
    },
    {
      "buffer": 0,
      "byteOffset": 178248,
      "byteLength": 3960
    },
    {
      "buffer": 0,
      "byteOffset": 182208,
      "byteLength": 3120
    },
    {
      "buffer": 0,
      "byteOffset": 185328,
      "byteLength": 5940
    },
    {
      "buffer": 0,
      "byteOffset": 191268,
      "byteLength": 5940
    },
    {
      "buffer": 0,
      "byteOffset": 197208,
      "byteLength": 7920
    },
    {
      "buffer": 0,
      "byteOffset": 205128,
      "byteLength": 3960
    },
    {
      "buffer": 0,
      "byteOffset": 209088,
      "byteLength": 3120
    },
    {
      "buffer": 0,
      "byteOffset": 212208,
      "byteLength": 5940
    },
    {
      "buffer": 0,
      "byteOffset": 218148,
      "byteLength": 5940
    },
    {
      "buffer": 0,
      "byteOffset": 224088,
      "byteLength": 7920
    },
    {
      "buffer": 0,
      "byteOffset": 232008,
      "byteLength": 3960
    },
    {
      "buffer": 0,
      "byteOffset": 235968,
      "byteLength": 3120
    },
    {
      "buffer": 0,
      "byteOffset": 239088,
      "byteLength": 5940
    },
    {
      "buffer": 0,
      "byteOffset": 245028,
      "byteLength": 5940
    },
    {
      "buffer": 0,
      "byteOffset": 250968,
      "byteLength": 7920
    },
    {
      "buffer": 0,
      "byteOffset": 258888,
      "byteLength": 3960
    },
    {
      "buffer": 0,
      "byteOffset": 262848,
      "byteLength": 3120
    }
  ],
  "images": [
    {
      "uri": "1100759919vintage_wooden_drawer_01_diff_4kMain.png",
      "name": "vintage_wooden_drawer_01_diff_4k"
    },
    {
      "uri": "1793073579vintage_wooden_drawer_01_nor_gl_4kBump.png",
      "name": "vintage_wooden_drawer_01_nor_gl_4k"
    }
  ],
  "materials": [
    {
      "pbrMetallicRoughness": {
        "baseColorTexture": {
          "index": 0
        },
        "metallicFactor": 0.0,
        "roughnessFactor": 0.5
      },
      "normalTexture": {
        "index": 1
      },
      "name": "vintage_wooden_drawer_01"
    }
  ],
  "meshes": [
    {
      "primitives": [
        {
          "attributes": {
            "POSITION": 0,
            "NORMAL": 1,
            "TANGENT": 2,
            "TEXCOORD_0": 3
          },
          "indices": 4,
          "material": 0
        }
      ],
      "name": "vintage_wooden_drawer_01_body"
    },
    {
      "primitives": [
        {
          "attributes": {
            "POSITION": 5,
            "NORMAL": 6,
            "TANGENT": 7,
            "TEXCOORD_0": 8
          },
          "indices": 9,
          "material": 0
        }
      ],
      "name": "vintage_wooden_drawer_01_drawer01"
    },
    {
      "primitives": [
        {
          "attributes": {
            "POSITION": 10,
            "NORMAL": 11,
            "TANGENT": 12,
            "TEXCOORD_0": 13
          },
          "indices": 14,
          "material": 0
        }
      ],
      "name": "vintage_wooden_drawer_01_drawer02"
    },
    {
      "primitives": [
        {
          "attributes": {
            "POSITION": 15,
            "NORMAL": 16,
            "TANGENT": 17,
            "TEXCOORD_0": 18
          },
          "indices": 19,
          "material": 0
        }
      ],
      "name": "vintage_wooden_drawer_01_drawer03"
    },
    {
      "primitives": [
        {
          "attributes": {
            "POSITION": 20,
            "NORMAL": 21,
            "TANGENT": 22,
            "TEXCOORD_0": 23
          },
          "indices": 24,
          "material": 0
        }
      ],
      "name": "vintage_wooden_drawer_01_drawer04"
    },
    {
      "primitives": [
        {
          "attributes": {
            "POSITION": 25,
            "NORMAL": 26,
            "TANGENT": 27,
            "TEXCOORD_0": 28
          },
          "indices": 29,
          "material": 0
        }
      ],
      "name": "vintage_wooden_drawer_01_drawer05"
    },
    {
      "primitives": [
        {
          "attributes": {
            "POSITION": 30,
            "NORMAL": 31,
            "TANGENT": 32,
            "TEXCOORD_0": 33
          },
          "indices": 34,
          "material": 0
        }
      ],
      "name": "vintage_wooden_drawer_01_drawer06"
    }
  ],
  "nodes": [
    {
      "children": [
        1,
        2,
        3,
        4,
        5,
        6,
        7
      ],
      "name": "vintage_wooden_drawer_01_4k"
    },
    {
      "mesh": 0,
      "rotation": [
        -0.7071068,
        0.0,
        0.0,
        0.7071067
      ],
      "scale": [
        100.0,
        100.0,
        100.0
      ],
      "name": "vintage_wooden_drawer_01_body"
    },
    {
      "mesh": 1,
      "rotation": [
        -0.7071068,
        0.0,
        0.0,
        0.7071067
      ],
      "scale": [
        100.0,
        100.0,
        100.0
      ],
      "translation": [
        -0.276519656,
        0.3878297,
        0.0139804622
      ],
      "name": "vintage_wooden_drawer_01_drawer01"
    },
    {
      "mesh": 2,
      "rotation": [
        -0.7071068,
        0.0,
        0.0,
        0.7071067
      ],
      "scale": [
        100.0,
        100.0,
        100.0
      ],
      "translation": [
        2.83122063E-07,
        0.3875169,
        0.0156430975
      ],
      "name": "vintage_wooden_drawer_01_drawer02"
    },
    {
      "mesh": 3,
      "rotation": [
        -0.7071068,
        0.0,
        0.0,
        0.7071067
      ],
      "scale": [
        100.0,
        100.0,
        100.0
      ],
      "translation": [
        0.276202,
        0.387393117,
        0.0139804846
      ],
      "name": "vintage_wooden_drawer_01_drawer03"
    },
    {
      "mesh": 4,
      "rotation": [
        -0.7071068,
        0.0,
        0.0,
        0.7071067
      ],
      "scale": [
        100.0,
        100.0,
        100.0
      ],
      "translation": [
        -0.276550949,
        0.1728067,
        0.0149312979
      ],
      "name": "vintage_wooden_drawer_01_drawer04"
    },
    {
      "mesh": 5,
      "rotation": [
        -0.7071068,
        0.0,
        0.0,
        0.7071067
      ],
      "scale": [
        100.0,
        100.0,
        100.0
      ],
      "translation": [
        0.0,
        0.1728067,
        0.0127317831
      ],
      "name": "vintage_wooden_drawer_01_drawer05"
    },
    {
      "mesh": 6,
      "rotation": [
        -0.7071068,
        0.0,
        0.0,
        0.7071067
      ],
      "scale": [
        100.0,
        100.0,
        100.0
      ],
      "translation": [
        0.275889158,
        0.172813311,
        0.0155427307
      ],
      "name": "vintage_wooden_drawer_01_drawer06"
    }
  ],
  "samplers": [
    {}
  ],
  "scene": 0,
  "scenes": [
    {
      "nodes": [
        0
      ],
      "name": "Vintage_Cupboard"
    }
  ],
  "textures": [
    {
      "sampler": 0,
      "source": 0,
      "name": "1100759919vintage_wooden_drawer_01_diff_4kMain"
    },
    {
      "sampler": 0,
      "source": 1,
      "name": "1793073579vintage_wooden_drawer_01_nor_gl_4kBump"
    }
  ]
}